<svg xmlns="http://www.w3.org/2000/svg" width="338" height="120" viewBox="0 0 338 120" version="1.1"><path d="M 194.418 4.470 C 194.021 6.054, 194.347 7.490, 195.328 8.470 C 196.169 9.312, 197.596 10, 198.500 10 C 199.404 10, 200.786 9.357, 201.571 8.571 C 202.357 7.786, 203 6.526, 203 5.771 C 203 5.017, 202.460 3.860, 201.800 3.200 C 201.140 2.540, 199.349 2, 197.819 2 C 195.696 2, 194.892 2.584, 194.418 4.470 M 172.186 21.717 C 170.659 23.615, 170.045 25.650, 170.150 28.467 L 170.300 32.500 171 28 L 171.700 23.500 171.850 28.179 C 171.938 30.923, 172.650 33.507, 173.571 34.429 C 174.561 35.418, 176.910 36, 179.916 36 C 183.271 36, 185.182 35.456, 186.345 34.171 C 187.461 32.939, 188 30.559, 188 26.871 C 188 23.862, 187.460 20.860, 186.800 20.200 C 186.140 19.540, 183.074 19, 179.986 19 C 175.082 19, 174.096 19.343, 172.186 21.717 M 144 56.500 C 144 57.325, 143.660 58, 143.244 58 C 142.828 58, 141.852 59.462, 141.074 61.250 C 140.297 63.038, 139.399 64.725, 139.080 65 C 138.761 65.275, 137.685 66.850, 136.688 68.500 C 135.692 70.150, 134.627 72.287, 134.322 73.250 C 134.016 74.213, 133.424 75, 133.005 75 C 132.586 75, 131.647 76.463, 130.918 78.250 C 130.190 80.037, 128.033 84.200, 126.126 87.500 C 124.218 90.800, 122.284 93.650, 121.829 93.833 C 121.373 94.017, 121 94.716, 121 95.388 C 121 96.059, 119.650 98.737, 118 101.339 C 116.350 103.941, 115 107.074, 115 108.303 C 115 109.531, 116.141 112.215, 117.536 114.268 C 119.344 116.929, 120.800 118, 122.607 118 C 124.002 118, 125.701 117.438, 126.383 116.750 C 127.065 116.063, 128.268 114.037, 129.056 112.250 C 129.844 110.463, 130.776 109, 131.127 109 C 131.479 109, 132.002 108.100, 132.290 107 C 132.577 105.900, 133.275 105, 133.839 105 C 134.403 105, 135.176 105.978, 135.555 107.173 C 135.934 108.368, 137.107 110.272, 138.161 111.403 C 139.215 112.535, 140.334 114.482, 140.647 115.730 C 141.189 117.888, 141.679 118, 150.608 118 C 157.464 118, 159.995 117.662, 159.983 116.750 C 159.973 116.063, 158.867 114.458, 157.524 113.185 C 156.181 111.911, 154.523 109.324, 153.840 107.435 C 153.157 105.546, 152.293 104, 151.920 104 C 151.548 104, 150.642 102.537, 149.908 100.750 C 149.175 98.963, 147.842 96.705, 146.947 95.733 C 146.052 94.761, 144.752 92.905, 144.058 91.607 C 142.916 89.475, 143.334 88.316, 148.398 79.545 C 151.479 74.208, 154 69.532, 154 69.153 C 154 68.774, 152.875 66.809, 151.500 64.785 C 150.125 62.762, 149 60.637, 149 60.064 C 149 59.492, 148.225 58.118, 147.278 57.011 C 146.331 55.905, 145.206 55, 144.778 55 C 144.350 55, 144 55.675, 144 56.500" stroke="none" fill="#3c8fd0" fill-rule="evenodd"/><path d="M 180.750 8.080 C 179.615 8.741, 179 10.320, 179 12.571 C 179 15.304, 179.532 16.285, 181.500 17.182 C 183.370 18.034, 184.630 18.034, 186.500 17.182 C 188.436 16.300, 189 15.294, 189 12.721 C 189 10.895, 188.460 8.860, 187.800 8.200 C 187.140 7.540, 185.678 7.014, 184.550 7.030 C 183.422 7.047, 181.713 7.519, 180.750 8.080 M 193.189 14.862 C 192.321 15.412, 191.983 17.351, 192.189 20.597 L 192.500 25.500 197.403 25.811 C 200.649 26.017, 202.588 25.679, 203.138 24.811 C 203.595 24.090, 203.976 22.233, 203.985 20.684 C 203.993 19.136, 203.534 16.998, 202.965 15.934 C 202.224 14.549, 200.874 14.004, 198.215 14.015 C 196.172 14.024, 193.910 14.405, 193.189 14.862 M 163.937 23.461 C 162.410 24.299, 158.599 29.608, 154.508 36.596 L 147.642 48.324 149.958 52.412 C 151.231 54.660, 158.062 66.460, 165.137 78.633 C 172.211 90.805, 178 101.074, 178 101.452 C 178 101.830, 176.994 101.995, 175.765 101.820 C 174.068 101.577, 171.612 98.189, 165.558 87.736 C 161.173 80.165, 157.145 74.118, 156.607 74.298 C 156.069 74.477, 154.364 76.846, 152.818 79.562 C 151.272 82.278, 149.500 85.476, 148.880 86.669 C 147.898 88.558, 148.833 90.713, 156.126 103.384 L 164.500 117.930 184.250 117.965 C 195.113 117.984, 204 117.738, 204 117.419 C 204 117.099, 200.553 110.912, 196.339 103.669 C 192.125 96.426, 187.513 88.316, 186.089 85.647 C 184.665 82.978, 183.050 80.040, 182.500 79.119 C 181.950 78.197, 177.998 71.342, 173.719 63.885 C 168.717 55.169, 166.166 49.732, 166.576 48.663 C 166.927 47.748, 167.571 47, 168.007 47 C 168.444 47, 171.728 52.063, 175.305 58.250 C 178.882 64.438, 182.752 71.188, 183.905 73.250 C 185.057 75.313, 186.965 78.688, 188.145 80.750 C 189.324 82.813, 191.462 86.573, 192.895 89.106 C 194.328 91.640, 198.650 99.177, 202.500 105.855 L 209.500 117.998 213.677 117.999 C 217 118, 218.279 117.461, 219.927 115.365 C 221.119 113.850, 222 111.257, 222 109.262 C 222 106.611, 218.620 99.988, 207.652 81.147 C 199.760 67.591, 191.636 53.350, 189.597 49.500 C 187.559 45.650, 184.558 41.263, 182.930 39.750 C 180.628 37.613, 178.985 37, 175.556 37 L 171.144 37 170.510 31.250 C 170.162 28.087, 169.787 24.830, 169.677 24.011 C 169.567 23.193, 168.807 22.417, 167.989 22.288 C 167.170 22.159, 165.347 22.687, 163.937 23.461 M 144 54.393 C 144 54.609, 144.675 55.045, 145.500 55.362 C 146.325 55.678, 147 55.501, 147 54.969 C 147 54.436, 146.325 54, 145.500 54 C 144.675 54, 144 54.177, 144 54.393 M 138.638 63.500 C 138.322 64.325, 138.499 65, 139.031 65 C 139.564 65, 140 64.325, 140 63.500 C 140 62.675, 139.823 62, 139.607 62 C 139.391 62, 138.955 62.675, 138.638 63.500 M 135.632 69.250 L 133.833 72.500 135.894 70 C 137.028 68.625, 137.966 67.162, 137.978 66.750 C 137.990 66.338, 137.872 66, 137.716 66 C 137.559 66, 136.622 67.463, 135.632 69.250 M 152 73 C 151.411 74.100, 151.155 75, 151.430 75 C 151.705 75, 152.411 74.100, 153 73 C 153.589 71.900, 153.845 71, 153.570 71 C 153.295 71, 152.589 71.900, 152 73 M 148 80 C 147.411 81.100, 147.155 82, 147.430 82 C 147.705 82, 148.411 81.100, 149 80 C 149.589 78.900, 149.845 78, 149.570 78 C 149.295 78, 148.589 78.900, 148 80 M 144.035 86.934 C 143.466 87.998, 143.010 89.236, 143.022 89.684 C 143.034 90.133, 143.988 91.625, 145.141 93 L 147.237 95.500 145.515 92.626 C 144.156 90.361, 144.021 89.250, 144.874 87.376 C 145.470 86.069, 145.758 85, 145.514 85 C 145.270 85, 144.605 85.870, 144.035 86.934 M 124.980 87.524 C 124.284 88.362, 123.968 89.301, 124.276 89.610 C 124.585 89.919, 125.340 89.233, 125.954 88.086 C 126.568 86.939, 126.885 86, 126.658 86 C 126.431 86, 125.676 86.686, 124.980 87.524 M 118 100 C 117.411 101.100, 117.155 102, 117.430 102 C 117.705 102, 118.411 101.100, 119 100 C 119.589 98.900, 119.845 98, 119.570 98 C 119.295 98, 118.589 98.900, 118 100 M 132.459 106.067 C 132.096 106.653, 132.070 107.403, 132.400 107.733 C 132.730 108.063, 133.014 107.696, 133.032 106.917 C 133.054 105.921, 133.499 106.076, 134.532 107.441 C 135.339 108.509, 136 109.108, 136 108.773 C 136 108.438, 135.727 107.452, 135.393 106.582 C 135.059 105.712, 134.411 105, 133.952 105 C 133.493 105, 132.821 105.480, 132.459 106.067 M 155 110 C 155.589 111.100, 156.295 112, 156.570 112 C 156.845 112, 156.589 111.100, 156 110 C 155.411 108.900, 154.705 108, 154.430 108 C 154.155 108, 154.411 108.900, 155 110 M 129.260 111.685 C 128.579 113.153, 128.152 114.486, 128.313 114.646 C 128.474 114.807, 129.394 113.602, 130.359 111.969 C 131.324 110.336, 131.750 109.004, 131.307 109.008 C 130.863 109.012, 129.942 110.217, 129.260 111.685 M 138 112.878 C 138 113.360, 138.749 114.373, 139.664 115.128 C 141.172 116.372, 141.216 116.290, 140.129 114.250 C 139.469 113.013, 138.720 112, 138.465 112 C 138.209 112, 138 112.395, 138 112.878" stroke="none" fill="#fff" fill-rule="evenodd"/></svg>